<svg width="836" height="1030" viewBox="0 0 836 1030" fill="none" xmlns="http://www.w3.org/2000/svg">
<g clip-path="url(#clip0_162_128)">
<path d="M654.457 998.098V181.193L341.208 181.193L341.208 998.098H654.457Z" fill="white"/>
<path d="M460.314 998.098L460.314 181.193L147.065 181.193L147.065 998.098H460.314Z" fill="white"/>
<path d="M683 998V191L367 191L367 998H683Z" fill="white"/>
<path d="M355 998V806H37V998H355Z" fill="white"/>
<path d="M372.552 926.398V734.112H59.3023V926.398H372.552Z" fill="white"/>
<path d="M425.209 831.07V638.783H111.96V831.07H425.209Z" fill="white"/>
<path d="M729 998V800H416V998H729Z" fill="white"/>
<path d="M759 629V305H446V629H759Z" fill="white"/>
<path d="M686 363V41L576 41V363H686Z" fill="white"/>
<path d="M644.741 406.447V84.6112H538.046V406.447H644.741Z" fill="white"/>
<path d="M608 445V123H500V445H608Z" fill="white"/>
<path d="M724 588V264H613V588H724Z" fill="white"/>
<path d="M798 551V401H689V551H798Z" fill="white"/>
<path d="M721 703V553H610V703H721Z" fill="white"/>
<path d="M666.618 550.913V400.806H559.924V550.913H666.618Z" fill="white"/>
<path d="M143 547H184L184 302H143L143 547Z" fill="#5F3737"/>
<path d="M177.656 478.084H218.466L218.466 155.935H177.656L177.656 478.084Z" fill="#5F3737"/>
<path d="M212.511 403.188H253.32L253.32 155.998H212.511L212.511 403.188Z" fill="#5F3737"/>
<path d="M248.117 339.134H288.927V160.699H248.117L248.117 339.134Z" fill="#5F3737"/>
<path d="M285.165 304.663H325.975V160.636H285.165V304.663Z" fill="#5F3737"/>
<path d="M322.652 304.663H360.516V160.636H322.652V304.663Z" fill="#5F3737"/>
<path d="M358 225.931H398.81V161H358V225.931Z" fill="#5F3737"/>
<path d="M70.5861 129.612H111.396V84.9873H70.5861V129.612Z" fill="#5F3737"/>
<path d="M110 162H150V121H110V162Z" fill="#5F3737"/>
<path d="M145.811 225.567H186.621V155.935H145.811V225.567Z" fill="#5F3737"/>
<path d="M499.807 156.813H215.896V195.044H499.807V156.813Z" fill="#040000"/>
<path d="M647.687 300.84H385.841V339.071H647.687V300.84Z" fill="#040000"/>
<path d="M218.466 118.581H146.626V156.813H218.466V118.581Z" fill="#040000"/>
<path d="M150 83H111V121H150V83Z" fill="#040000"/>
<path d="M111 47H38V85H111V47Z" fill="#040000"/>
<path d="M38.2393 300.84L38.2393 85.614H-3.8147e-06L-3.8147e-06 300.84H38.2393Z" fill="#040000"/>
<path d="M685.989 195.044V40.8014H647.75V195.044H685.989Z" fill="#040000"/>
<path d="M798 403V305H759V403H798Z" fill="#040000"/>
<path d="M836 550.913V403.188H797.761V550.913H836Z" fill="#040000"/>
<path d="M721.282 800.108V699.515H683.043V800.108H721.282Z" fill="#040000"/>
<path d="M36.9857 1030H753.942V991.768L36.9857 991.768V1030Z" fill="#040000"/>
<path d="M75.225 373.104V300.84H36.9856L36.9856 373.104H75.225Z" fill="#040000"/>
<path d="M76.4787 300.84L76.4787 84.9872H38.2393L38.2393 300.84H76.4787Z" fill="#E5B4D2"/>
<path d="M145.811 358.438V155.935H107.572L107.572 358.438H145.811Z" fill="#E5B4D2"/>
<path d="M396.122 582V410.019H322.715V582H396.122Z" fill="#D97EB0"/>
<path d="M685.989 579.806V373.605H640.54V579.806H685.989Z" fill="#D97EB0"/>
<path d="M640.478 582.564V373.543H602.238V582.564H640.478Z" fill="#D97EB0"/>
<path d="M614.525 617.912V373.605H391.922V617.912H614.525Z" fill="#D97EB0"/>
<path d="M647.75 582.062V337.755H426.839V582.062H647.75Z" fill="#D97EB0"/>
<path d="M563 582V338H359V582H563Z" fill="#D97EB0"/>
<path d="M182.546 304.663V228.576H144.307V304.663H182.546Z" fill="#E5B4D2"/>
<path d="M647.938 155.998V36.5394H609.698V155.998H647.938Z" fill="#E5B4D2"/>
<path d="M614.525 122.404V81.6028H576.286V122.404H614.525Z" fill="#E5B4D2"/>
<path d="M111 373L111 121H75L75 373H111Z" fill="#E5B4D2"/>
<path d="M151 652V546H111V652H151Z" fill="#040000"/>
<path d="M113 734V652H75V734H113Z" fill="#040000"/>
<path d="M75 806V734H37L37 806H75Z" fill="#040000"/>
<path d="M38.302 998.098L38.302 805.812H0.0626411L0.0626411 998.098H38.302Z" fill="#040000"/>
<path d="M759.239 1029.89V800H721V1029.89H759.239Z" fill="#040000"/>
<path d="M499.744 161.889V121.088H461.505V161.889H499.744Z" fill="#040000"/>
<path d="M538.047 122.404V81.6028H499.807V122.404H538.047Z" fill="#040000"/>
<path d="M759.459 304.663V263.862H721.219V304.663H759.459Z" fill="#040000"/>
<path d="M574.656 272.761V231.96H461.568V272.761H574.656Z" fill="#E5B4D2"/>
<path d="M361 266V226H248V266H361Z" fill="#040000"/>
<path d="M654.457 232.023V191.221H574.656V232.023H654.457Z" fill="#040000"/>
<path d="M721.219 579.806V403.188H682.98V579.806H721.219Z" fill="#040000"/>
<path d="M685.989 403.125V337.943H647.75V403.125H685.989Z" fill="#040000"/>
<path d="M427.152 373.605V332.804H357.883V373.605H427.152Z" fill="#040000"/>
<path d="M318.64 410.019H359.45V369.218H318.64V410.019Z" fill="#040000"/>
<path d="M322.652 620.231H363.462V541.261H322.652V620.231Z" fill="#040000"/>
<path d="M361.205 658.714H402.015V582.188H361.205V658.714Z" fill="#040000"/>
<path d="M582.367 618.852V659.654H660.412V618.852H582.367Z" fill="#040000"/>
<path d="M144 305H185V225H144V305Z" fill="#DCBDB2"/>
<path d="M110 373H151V261H110L110 373Z" fill="#DCBDB2"/>
<path d="M110 546H151L151 373H110L110 546Z" fill="#5F3737"/>
<path d="M281.906 582.062H322.715V410.082H281.906V582.062Z" fill="#040000"/>
<path d="M395.432 617.912V658.714H460.189V617.912H395.432Z" fill="#040000"/>
<path d="M460.251 634.772H419.442V699.515H460.251V634.772Z" fill="#040000"/>
<path d="M458.183 658.714V699.515H583.746V658.714H458.183Z" fill="#040000"/>
<path d="M724.166 263.861V193.227H685.926V263.861H724.166Z" fill="#040000"/>
<path d="M756.951 699.515V628.88H718.712V699.515H756.951Z" fill="#040000"/>
<path d="M796.444 628.88V550.913H758.205V628.88H796.444Z" fill="#040000"/>
<path d="M576.286 81.6028V40.8014H538.046V81.6028H576.286Z" fill="#040000"/>
<path d="M647.687 40.8014V0L571.584 0V40.8014L647.687 40.8014Z" fill="#040000"/>
<path d="M113 547L113 373H75V547H113Z" fill="#040000"/>
<path d="M608.068 579.806H402.077V620.231H608.068V579.806Z" fill="#E73D79"/>
<path d="M386.155 503.029H322.715V541.261H386.155V503.029Z" fill="#E73D79"/>
<path d="M361.08 519.074V449.379H322.84V519.074H361.08Z" fill="#E73D79"/>
<path d="M682.98 545.272H606.689V583.504H682.98V545.272Z" fill="#E73D79"/>
<path d="M648 580H572V620H648V580Z" fill="#E73D79"/>
<path d="M572 620H460V659H572V620Z" fill="#E73D79"/>
<path d="M505.01 541.261H361.581V582.25H505.01V541.261Z" fill="#E73D79"/>
<path d="M648 660H687V580H648V660Z" fill="#040000"/>
<path d="M572 620V700H613V620H572Z" fill="#040000"/>
</g>
<defs>
<clipPath id="clip0_162_128">
<rect width="836" height="1030" fill="white"/>
</clipPath>
</defs>
</svg>
