<svg width="740" height="664" viewBox="0 0 740 664" fill="none" xmlns="http://www.w3.org/2000/svg">
<g clip-path="url(#clip0_162_220)">
<path d="M282.688 54.4376H115.846V393.076H282.688V54.4376Z" fill="#E71F19"/>
<path d="M223.468 107.927H56.6262V338.702H223.468V107.927Z" fill="#E71F19"/>
<path d="M342.288 107.927H171.334V447.514H342.288V107.927Z" fill="#E71F19"/>
<path d="M511.724 151.616H334.632V511.688H511.724V151.616Z" fill="#E71F19"/>
<path d="M571.766 109.191H394.675V447.83H571.766V109.191Z" fill="#E71F19"/>
<path d="M633.264 54.7538H456.173V393.393H633.264V54.7538Z" fill="#E71F19"/>
<path d="M699.318 109.191H522.226V339.334H699.318V109.191Z" fill="#E71F19"/>
<path d="M406.127 151.616H229.036V511.688H406.127V151.616Z" fill="#E71F19"/>
<path d="M454.402 151.616H283.131V559.045H454.402V151.616Z" fill="#E71F19"/>
<path d="M408.594 202.134H283.131V609.562H408.594V202.134Z" fill="#E71F19"/>
<path d="M283.131 0H115.846V54.4376H283.131V0Z" fill="#040000"/>
<path d="M225.239 108.875H115.846V163.313H225.239V108.875Z" fill="white"/>
<path d="M173.105 163.313H115.846V217.75H173.105V163.313Z" fill="white"/>
<path d="M621.623 0H454.338V54.4376H621.623V0Z" fill="#040000"/>
<path d="M115.846 54.4376H56.6262V108.875H115.846V54.4376Z" fill="#040000"/>
<path d="M680.843 54.4376H621.623V108.875H680.843V54.4376Z" fill="#040000"/>
<path d="M115.846 338.639H56.6262V393.076H115.846V338.639Z" fill="#040000"/>
<path d="M172.473 393.076H113.252V447.514H172.473V393.076Z" fill="#040000"/>
<path d="M229.099 447.514H169.879V501.952H229.099V447.514Z" fill="#040000"/>
<path d="M284.396 501.952H225.176V556.389H284.396V501.952Z" fill="#040000"/>
<path d="M341.908 556.389H282.688V610.827H341.908V556.389Z" fill="#040000"/>
<path d="M398.345 609.562H339.125V664H398.345V609.562Z" fill="#040000"/>
<path d="M680.78 339.271H740V108.875H680.78V339.271Z" fill="#040000"/>
<path d="M624.154 393.709H683.374V339.271H624.154V393.709Z" fill="#040000"/>
<path d="M567.527 448.146H626.748V393.709H567.527V448.146Z" fill="#040000"/>
<path d="M512.23 502.584H571.45V448.146H512.23V502.584Z" fill="#040000"/>
<path d="M454.718 557.022H513.938V502.584H454.718V557.022Z" fill="#040000"/>
<path d="M398.281 610.131H457.502V555.694H398.281V610.131Z" fill="#040000"/>
<path d="M342.351 54.4376H283.131V108.875H342.351V54.4376Z" fill="#040000"/>
<path d="M401.508 108.875H342.288V163.313H401.508V108.875Z" fill="#040000"/>
<path d="M458.134 54.4376H398.914V108.875H458.134V54.4376Z" fill="#040000"/>
<path d="M59.2202 108.875H0V338.639H59.2202V108.875Z" fill="#040000"/>
</g>
<defs>
<clipPath id="clip0_162_220">
<rect width="740" height="664" fill="white"/>
</clipPath>
</defs>
</svg>
