<svg width="358" height="358" viewBox="0 0 358 358" fill="none" xmlns="http://www.w3.org/2000/svg">
<g clip-path="url(#clip0_135_33)">
<g clip-path="url(#clip1_135_33)">
<path d="M26.5046 218.897L57.7278 213.649L55.6646 201.289L85.7713 196.337L83.6666 183.729L103.872 180.356L95.4589 129.959L66.0731 134.865L62.2491 111.957L93.4783 106.744L95.0138 115.943L126.243 110.73L129.67 131.258L161.856 125.885L163.391 135.083L192.777 130.178L195.771 148.113L227.036 142.894L229.3 156.461L260.288 151.237L262.724 165.834L293.912 160.679L296.117 173.891L326.815 168.767L329.559 185.21L268.803 195.353L236.687 200.713L235.695 200.879L205.423 205.932L206.952 215.095L177.567 220.001L180.317 236.48L148.131 241.853L147.21 242.007L127.962 245.22L128.205 246.676L95.0969 252.203L90.5734 225.104L29.2495 235.341L26.5046 218.897Z" fill="white"/>
<path d="M48.199 101.781L91.4448 94.5625L93.7984 108.662L50.5527 115.881L48.199 101.781Z" fill="#231815"/>
<path d="M93.7984 108.662L125.028 103.449L127.381 117.549L96.1521 122.762L93.7984 108.662Z" fill="#231815"/>
<path d="M127.31 116.903L158.539 111.69L160.893 125.79L129.664 131.003L127.31 116.903Z" fill="#231815"/>
<path d="M160.893 125.79L192.122 120.577L194.475 134.677L163.246 139.89L160.893 125.79Z" fill="#231815"/>
<path d="M193.554 134.611L224.783 129.398L227.136 143.498L195.907 148.711L193.554 134.611Z" fill="#231815"/>
<path d="M227.101 143.504L258.33 138.291L260.684 152.391L229.455 157.604L227.101 143.504Z" fill="#231815"/>
<path d="M260.323 151.757L291.552 146.544L293.906 160.644L262.677 165.857L260.323 151.757Z" fill="#231815"/>
<path d="M293.941 160.638L325.17 155.425L327.524 169.524L296.295 174.737L293.941 160.638Z" fill="#231815"/>
<path d="M54.3415 138.268L48.7433 104.732L62.5522 102.427L68.1504 135.963L54.3415 138.268Z" fill="#231815"/>
<path d="M69.9449 148.455L67.5913 134.356L81.6639 132.007L84.0175 146.106L69.9449 148.455Z" fill="#231815"/>
<path d="M83.657 145.911L81.3034 131.811L95.376 129.462L97.7296 143.562L83.657 145.911Z" fill="#919191"/>
<path d="M100.018 157.49L97.6645 143.39L111.737 141.041L114.091 155.141L100.018 157.49Z" fill="#919191"/>
<path d="M116.213 167.855L113.86 153.756L140.303 149.341L142.657 163.441L116.213 167.855Z" fill="#919191"/>
<path d="M144.483 174.38L142.129 160.28L168.573 155.866L170.927 169.966L144.483 174.38Z" fill="#919191"/>
<path d="M156.933 238.485L154.579 224.386L181.023 219.971L183.377 234.071L156.933 238.485Z" fill="#919191"/>
<path d="M85.981 159.833L83.6274 145.733L97.7 143.384L100.054 157.484L85.981 159.833Z" fill="#231815"/>
<path d="M102.176 170.198L99.8224 156.099L113.895 153.75L116.249 167.849L102.176 170.198Z" fill="#231815"/>
<path d="M86.5347 198.509L55.3056 203.722L52.9519 189.622L84.181 184.409L86.5347 198.509Z" fill="#231815"/>
<path d="M58.2496 216.993L27.0205 222.206L24.6668 208.107L55.896 202.893L58.2496 216.993Z" fill="#231815"/>
<path d="M144.483 174.38L84.2224 184.439L81.8688 170.339L142.129 160.28L144.483 174.38Z" fill="#231815"/>
<path d="M231.838 171.662L144.389 186.26L142.036 172.16L229.484 157.562L231.838 171.662Z" fill="#231815"/>
<path d="M331 193.841L326.963 169.655L341.035 167.305L345.073 191.492L331 193.841Z" fill="#231815"/>
<path d="M16.754 247.356L12.7167 223.17L26.7893 220.821L30.8266 245.007L16.754 247.356Z" fill="#231815"/>
<path d="M94.5627 258.169L90.5253 233.983L104.598 231.634L108.635 255.82L94.5627 258.169Z" fill="#231815"/>
<path d="M345.245 192.521L16.7895 247.35L14.4358 233.251L342.891 178.422L345.245 192.521Z" fill="#231815"/>
<path d="M273.691 218.959L183.371 234.036L181.017 219.936L271.337 204.859L273.691 218.959Z" fill="#231815"/>
<path d="M185.724 248.135L95.4045 263.212L93.0509 249.113L183.371 234.036L185.724 248.135Z" fill="#231815"/>
</g>
</g>
<defs>
<clipPath id="clip0_135_33">
<rect width="358" height="358" fill="white"/>
</clipPath>
<clipPath id="clip1_135_33">
<rect width="333" height="167" fill="white" transform="matrix(-0.986352 0.164651 0.164651 0.986352 322.455 56)"/>
</clipPath>
</defs>
</svg>
