<svg width="315" height="291" viewBox="0 0 315 291" fill="none" xmlns="http://www.w3.org/2000/svg">
<g clip-path="url(#clip0_138_63)">
<path d="M242.365 218.261V242.435H218.255V266.783H193.97V290.956H96.8325V266.914H72.6353V242.696H48.3073V218.479H24.11V194.131H0V169.826H23.8484V121.261H48.1329C48.1329 112.927 48.1329 104.898 48.1329 96.8691C55.065 96.7818 61.9972 96.5636 68.9294 96.6509C71.5889 96.6509 72.5045 95.7782 72.4173 93.1601C72.2865 87.7494 72.5481 82.2951 72.2865 76.8408C72.1121 73.3063 73.3329 72.3027 76.7772 72.3464C90.0311 72.5209 103.285 72.3027 116.583 72.5209C120.201 72.5646 121.161 71.3864 121.03 67.9829C120.768 62.5722 121.03 57.1179 120.899 51.6635C120.812 49.0454 121.727 48.0418 124.343 48.1291C130.011 48.26 135.722 48.0418 141.39 48.2164C144.137 48.3036 145.227 47.4746 145.14 44.5947C144.965 39.0531 144.965 33.4678 145.14 27.9262C145.271 25.09 144.355 24.2173 141.521 24.2173C119.94 24.3482 98.3149 24.3918 76.7336 24.2173C73.5073 24.2173 72.6353 25.1336 72.7225 28.2753C72.9405 34.9078 72.8097 41.5839 72.8097 48.5654C65.6159 48.5654 58.9453 48.6964 52.2747 48.5218C49.3536 48.4345 48.1765 49.1327 48.4381 52.2744C48.7432 55.8961 48.5689 59.605 48.5253 63.2704C48.4381 74.5281 48.3509 85.7422 48.2201 97H24.1972V48.4345H48.0893V0H145.183V23.8682H193.709V47.9982H217.949V24.3045H266.475V48.1291H290.759V72.4336H314.956V121.043H291.195V145.347H315V169.739H290.934L291.021 169.826V145.784H242.452C242.452 152.46 242.234 158.874 242.539 165.288C242.713 169.041 241.362 170.001 237.83 169.87C231.421 169.608 225.012 169.783 218.211 169.783C218.211 177.07 218.124 183.877 218.255 190.64C218.298 193.302 217.426 194.175 214.767 194.087C208.837 193.913 202.908 193.913 196.979 194.087C195.976 194.087 194.145 195.265 194.101 195.92C193.883 203.207 193.97 210.494 193.97 218.13C196.107 218.13 197.72 218.13 199.333 218.13C213.72 218.174 228.108 218.261 242.539 218.305L242.452 218.217L242.365 218.261ZM145.358 72.5645H169.599C169.599 80.2443 169.555 87.1822 169.599 94.1201C169.599 96.3018 168.683 96.9564 166.634 96.9127C160.574 96.8254 154.513 96.9127 148.497 96.8255C146.448 96.8255 145.271 97.2182 145.271 99.749C145.401 115.021 145.401 130.293 145.445 145.522C138.513 145.522 131.537 145.653 124.605 145.522C121.945 145.478 121.073 146.351 121.161 149.013C121.335 154.685 121.03 160.401 121.248 166.074C121.335 169.128 120.201 170.001 117.28 169.914C111.612 169.739 105.901 169.914 100.233 169.826C97.8353 169.783 96.8761 170.525 96.9197 173.055C97.0505 178.859 97.0505 184.706 96.9197 190.509C96.8325 193.258 97.9661 193.956 100.495 193.869C106.163 193.738 111.874 193.956 117.542 193.782C120.289 193.695 121.379 194.567 121.248 197.447C121.073 203.12 121.291 208.836 121.161 214.508C121.073 217.345 122.163 218.261 124.91 218.174C130.447 217.999 136.028 217.999 141.608 218.174C144.486 218.261 145.358 217.126 145.271 214.377C145.096 209.054 145.401 203.731 145.14 198.451C144.922 194.785 146.099 193.695 149.805 193.738C163.059 193.956 176.356 193.738 189.61 193.913C193.011 193.956 194.014 192.865 193.839 189.593C193.578 184.531 193.534 179.47 193.839 174.408C194.057 170.699 192.793 169.695 189.131 169.783C175.746 170.001 162.361 169.826 148.933 169.826C146.927 169.826 145.14 169.87 145.227 166.99C145.358 159.79 145.358 152.591 145.401 145.391C160.181 145.391 174.961 145.304 189.698 145.478C193.055 145.478 194.057 144.562 193.927 141.202C193.665 134.657 193.839 128.155 193.839 121.086C200.815 121.086 207.355 120.912 213.851 121.174C217.121 121.305 218.211 120.432 218.167 116.985C217.993 103.458 218.08 89.9312 218.08 76.4044C218.08 75.2263 217.949 74.0045 217.862 72.4773H193.534V48.6091H145.445C145.445 56.7688 145.445 64.6667 145.445 72.6082C138.513 72.6082 131.537 72.7391 124.605 72.6082C121.989 72.5645 121.03 73.3936 121.117 76.0553C121.291 81.7278 121.291 87.444 121.117 93.1165C121.03 96.04 122.207 96.8255 124.91 96.7382C130.447 96.5636 136.028 96.5636 141.565 96.7382C144.486 96.8255 145.227 95.6909 145.183 92.9856C145.096 86.1786 145.271 79.3279 145.314 72.5209L145.358 72.5645ZM266.431 72.8264C266.431 65.4521 266.344 58.6014 266.475 51.7944C266.518 49.3072 265.734 48.4345 263.248 48.4782C257.45 48.6091 251.608 48.6091 245.809 48.4782C243.367 48.4345 242.495 49.22 242.495 51.7072C242.583 73.6991 242.539 95.7346 242.495 117.726C242.495 120.17 243.28 121.086 245.765 120.999C251.564 120.868 257.406 120.825 263.205 120.999C265.995 121.086 266.649 119.952 266.562 117.421C266.431 111.618 266.562 105.771 266.475 99.9672C266.431 97.48 267.347 96.6073 269.788 96.6509C275.718 96.7382 281.691 96.6509 287.62 96.6945C289.887 96.6945 290.759 95.9091 290.716 93.5965C290.628 87.924 290.541 82.2078 290.803 76.5353C290.934 73.4372 289.887 72.6082 286.922 72.6955C280.252 72.87 273.581 72.7391 266.431 72.7391V72.8264Z" fill="black"/>
<path d="M290.934 169.695V194H266.649L266.736 194.087V169.783H291.021L290.934 169.695Z" fill="black"/>
<path d="M266.649 194V218.305H242.365L242.452 218.392V194.087H266.736L266.649 194Z" fill="black"/>
<path d="M145.489 72.6954V48.6964H193.578V72.5645H217.906C217.993 74.0918 218.124 75.2699 218.124 76.4917C218.124 90.0184 218.037 103.545 218.211 117.072C218.255 120.519 217.121 121.392 213.895 121.261C207.355 121.043 200.859 121.174 193.883 121.174C193.883 128.199 193.709 134.744 193.97 141.289C194.101 144.649 193.098 145.609 189.741 145.565C174.961 145.391 160.181 145.478 145.445 145.478L145.576 145.565C145.532 130.293 145.576 115.021 145.401 99.7926C145.401 97.2618 146.579 96.8691 148.628 96.8691C154.688 96.9127 160.748 96.8691 166.765 96.9564C168.814 96.9564 169.729 96.3455 169.729 94.1637C169.642 87.2258 169.729 80.2879 169.729 72.6082H145.489L145.619 72.6954H145.489Z" fill="white"/>
<path d="M48.2636 97C48.3508 85.7422 48.4816 74.5281 48.5688 63.2704C48.5688 59.605 48.7868 55.9397 48.4816 52.2744C48.22 49.1327 49.3972 48.4346 52.3183 48.5218C58.9889 48.74 65.6595 48.5655 72.8533 48.5655C72.8533 41.5839 72.9841 34.9078 72.7661 28.2753C72.6789 25.1336 73.5508 24.2173 76.7771 24.2173C98.3585 24.3482 119.983 24.3046 141.565 24.2173C144.399 24.2173 145.271 25.0463 145.183 27.9262C144.965 33.4678 144.965 39.0531 145.183 44.5947C145.271 47.5182 144.181 48.3037 141.434 48.2164C135.766 48.0418 130.055 48.2164 124.387 48.1291C121.727 48.0855 120.855 49.0454 120.943 51.6635C121.117 57.0742 120.812 62.5286 121.073 67.9829C121.204 71.3864 120.245 72.6082 116.626 72.5209C103.372 72.3028 90.1183 72.5209 76.8207 72.3464C73.3765 72.3464 72.1557 73.3064 72.3301 76.8408C72.5917 82.2515 72.3301 87.7058 72.4609 93.1602C72.5481 95.7782 71.6325 96.6946 68.973 96.6509C62.0408 96.5637 55.1086 96.7818 48.1765 96.8691L48.3072 97H48.2636Z" fill="white"/>
<path d="M266.736 194.087H242.452V218.392C228.064 218.348 213.677 218.261 199.246 218.217C197.633 218.217 196.019 218.217 193.883 218.217C193.883 210.538 193.796 203.251 194.014 196.007C194.014 195.353 195.889 194.218 196.891 194.175C202.821 194 208.75 194 214.68 194.175C217.339 194.262 218.211 193.345 218.167 190.727C218.037 183.92 218.124 177.157 218.124 169.87C224.969 169.87 231.378 169.695 237.743 169.957C241.275 170.088 242.626 169.172 242.452 165.376C242.147 158.961 242.365 152.547 242.365 145.871H290.934V169.914H266.649V194.218L266.736 194.087Z" fill="white"/>
<path d="M145.401 145.435C145.358 152.634 145.358 159.834 145.227 167.034C145.183 169.914 146.927 169.87 148.933 169.87C162.318 169.87 175.746 170.001 189.131 169.826C192.749 169.783 194.014 170.786 193.839 174.452C193.578 179.513 193.621 184.575 193.839 189.637C194.014 192.909 193.011 194.044 189.61 193.956C176.356 193.782 163.059 193.956 149.805 193.782C146.143 193.738 144.965 194.829 145.14 198.494C145.445 203.774 145.14 209.098 145.271 214.421C145.358 217.17 144.486 218.305 141.608 218.217C136.071 218.043 130.491 218.043 124.91 218.217C122.12 218.305 121.073 217.388 121.161 214.552C121.335 208.879 121.073 203.163 121.248 197.491C121.335 194.611 120.289 193.782 117.542 193.825C111.874 193.956 106.163 193.782 100.495 193.913C97.9661 193.956 96.8325 193.302 96.9197 190.553C97.0941 184.749 97.0941 178.902 96.9197 173.099C96.8761 170.568 97.8353 169.826 100.233 169.87C105.901 170.001 111.612 169.783 117.28 169.957C120.201 170.045 121.335 169.172 121.248 166.117C121.073 160.445 121.335 154.729 121.161 149.056C121.073 146.395 121.989 145.522 124.605 145.565C131.537 145.696 138.513 145.565 145.445 145.565L145.358 145.478L145.401 145.435Z" fill="white"/>
<path d="M266.431 72.8264C273.538 72.8264 280.252 72.9573 286.922 72.7827C289.887 72.6955 290.934 73.5245 290.803 76.6226C290.541 82.2951 290.628 88.0113 290.716 93.6838C290.716 95.9964 289.887 96.8255 287.62 96.7818C281.691 96.6946 275.718 96.7818 269.788 96.7382C267.347 96.7382 266.431 97.5673 266.475 100.054C266.606 105.858 266.475 111.705 266.562 117.508C266.606 120.039 265.952 121.174 263.205 121.086C257.406 120.912 251.564 120.912 245.765 121.086C243.28 121.13 242.495 120.257 242.495 117.814C242.583 95.8219 242.583 73.7863 242.495 51.7944C242.495 49.2636 243.367 48.4782 245.809 48.5655C251.608 48.6964 257.45 48.6964 263.248 48.5655C265.734 48.5218 266.518 49.3509 266.475 51.8817C266.3 58.6887 266.431 65.4957 266.431 72.9136V72.8264Z" fill="white"/>
<path d="M145.401 72.5645C145.358 79.3716 145.183 86.2222 145.271 93.0292C145.271 95.7346 144.573 96.9127 141.652 96.7818C136.115 96.6073 130.534 96.6073 124.997 96.7818C122.294 96.8691 121.117 96.0837 121.204 93.1601C121.379 87.4876 121.379 81.7715 121.204 76.099C121.117 73.3936 122.076 72.5645 124.692 72.6518C131.624 72.7827 138.6 72.6518 145.532 72.6518L145.445 72.5645H145.401Z" fill="white"/>
<path d="M72.1557 48.6964H48.1329V97.1309H72.1557V48.6964Z" fill="white"/>
<path d="M72.8533 121.523H48.1329V169.957H72.8533V121.523Z" fill="#D3D3D3"/>
<path d="M266.911 48.3473H242.19V120.955H266.911V48.3473Z" fill="#D3D3D3"/>
<path d="M290.846 97.0436V72.3027H218.298V97.0436H290.846Z" fill="#D3D3D3"/>
<path d="M96.1785 121.523H72.1557V169.957H96.1785V121.523Z" fill="#D3D3D3"/>
<path d="M96.1785 166.51H72.1557V214.945H96.1785V166.51Z" fill="#D3D3D3"/>
<path d="M145.358 143.078H121.335V218.305H145.358V143.078Z" fill="#D3D3D3"/>
<path d="M145.358 70.8192H121.335V97.0873H145.358V70.8192Z" fill="white"/>
<path d="M145.314 24.2173H72.8533V50.4854H145.314V24.2173Z" fill="white"/>
<path d="M145.314 267.219V243.176H96.9197V267.219H145.314Z" fill="#D3D3D3"/>
<path d="M193.578 243.22V219.177H145.183V243.22H193.578Z" fill="#C1C1C1"/>
<path d="M193.578 193.869V169.826H87.546V193.869H193.578Z" fill="#D3D3D3"/>
<path d="M121.073 145.609V121.566H72.6789V145.609H121.073Z" fill="#D3D3D3"/>
<path d="M121.073 127.675V96.7818H72.6789V127.675H121.073Z" fill="#C1C1C1"/>
<path d="M121.117 127.719V96.8255H72.7225V127.719H121.117Z" fill="#D3D3D3"/>
<path d="M146.055 97.3054H121.335V145.74H146.055V97.3054Z" fill="#8C8C8C"/>
<path d="M193.883 170.481V145.74H145.14V170.481H193.883Z" fill="#8C8C8C"/>
<path d="M242.583 145.74V120.999H193.839V145.74H242.583Z" fill="#8C8C8C"/>
<path d="M193.927 243.569V218.828H145.183V243.569H193.927Z" fill="#8C8C8C"/>
</g>
<defs>
<clipPath id="clip0_138_63">
<rect width="315" height="291" fill="white"/>
</clipPath>
</defs>
</svg>
